<?xml version="1.0" standalone="no"?>
<!DOCTYPE svg PUBLIC "-//W3C//DTD SVG 20010904//EN"
 "http://www.w3.org/TR/2001/REC-SVG-20010904/DTD/svg10.dtd">
<svg version="1.0" xmlns="http://www.w3.org/2000/svg"
 width="2000.000000pt" height="2000.000000pt" viewBox="0 0 2000.000000 2000.000000"
 preserveAspectRatio="xMidYMid meet">

<g transform="translate(0.000000,2000.000000) scale(0.100000,-0.100000)"
fill="#000000" stroke="none">
<path d="M15290 18514 c-810 -468 -767 -442 -784 -478 -9 -19 -16 -43 -16 -54
0 -25 25 -46 46 -38 10 4 265 149 567 324 415 239 555 324 569 347 25 40 21
99 -7 102 -11 1 -180 -90 -375 -203z"/>
<path d="M15570 18397 c-41 -24 -165 -95 -275 -159 -110 -64 -326 -188 -480
-277 -154 -89 -288 -172 -297 -184 -41 -52 -30 -125 15 -111 12 4 206 113 432
244 225 130 472 272 548 316 150 86 181 117 175 176 -4 47 -29 46 -118 -5z"/>
<path d="M15515 18088 c-183 -107 -271 -158 -644 -374 -358 -206 -381 -224
-381 -286 0 -36 28 -51 61 -34 13 7 148 84 299 171 255 147 341 197 682 395
135 78 163 108 156 165 -5 49 -39 42 -173 -37z"/>
<path d="M12319 17800 c-91 -95 -89 -280 2 -280 64 0 135 127 127 227 -8 99
-64 122 -129 53z"/>
<path d="M12010 17633 c-99 -36 -151 -270 -70 -313 96 -52 212 218 129 301
-19 19 -32 22 -59 12z"/>
<path d="M10358 16163 c-1268 -730 -2304 -1331 -2302 -1335 3 -4 12 -8 20 -8
8 0 50 -14 93 -30 72 -28 187 -92 466 -258 95 -57 112 -64 135 -55 14 6 513
292 1110 637 649 375 1093 626 1105 624 25 -4 32 -47 14 -90 -14 -34 92 29
-1159 -693 -531 -306 -968 -560 -972 -563 -4 -4 25 -42 66 -85 l72 -78 382
221 c209 121 388 220 397 220 8 0 20 -10 26 -23 15 -33 -9 -87 -52 -119 -19
-14 -173 -105 -344 -203 -170 -98 -316 -183 -323 -189 -10 -10 -3 -28 33 -91
24 -43 46 -83 48 -89 2 -5 26 3 54 18 63 35 87 32 91 -11 4 -41 -20 -87 -58
-110 -35 -20 -35 -25 -15 -84 26 -72 62 -226 82 -344 25 -155 26 -654 0 -830
-75 -514 -215 -962 -451 -1451 -531 -1094 -1400 -1970 -2243 -2258 -333 -113
-617 -132 -898 -59 -130 33 -213 74 -478 233 -252 150 -304 188 -405 295 -141
148 -240 327 -318 575 l-33 105 -1 -1144 c0 -629 2 -1142 4 -1140 2 2 99 183
215 402 116 219 217 407 224 418 20 33 73 60 131 66 l54 6 59 123 c32 68 62
124 66 124 5 0 27 -13 50 -29 23 -15 58 -36 77 -46 19 -10 36 -19 38 -20 2 -2
-44 -108 -102 -236 -58 -128 -106 -239 -106 -246 0 -29 131 -38 172 -11 12 8
39 47 58 87 18 39 39 70 44 68 19 -6 56 -90 56 -127 0 -27 -54 -160 -185 -461
-102 -232 -185 -427 -185 -431 0 -5 10 -2 22 6 48 34 88 14 88 -44 0 -88 -91
-206 -192 -250 l-57 -25 -147 -335 c-81 -184 -200 -457 -266 -606 l-118 -272
0 -318 c1 -412 -9 -387 200 -508 63 -36 126 -66 140 -66 14 0 48 13 75 28 28
15 1749 1006 3825 2201 2576 1483 3789 2187 3818 2215 24 22 58 70 75 106 l32
65 3 3005 c1 1653 1 3420 0 3928 l-3 922 -2307 -1327z m1860 232 c6 -66 -7
-75 -537 -379 -335 -192 -508 -286 -523 -284 -17 2 -24 11 -26 33 -7 67 12 80
538 382 343 196 503 282 520 281 20 -2 26 -9 28 -33z m-35 -776 c14 -23 1 -64
-31 -99 -22 -25 -1088 -634 -1230 -703 -39 -19 -43 -20 -58 -5 -20 19 -13 71
14 105 23 30 1252 723 1276 720 10 -1 23 -9 29 -18z m-1409 -405 c9 -8 16 -20
16 -25 0 -22 -29 -75 -51 -95 -47 -41 -762 -445 -783 -442 -15 2 -22 11 -24
35 -5 53 22 88 101 135 234 137 711 408 718 408 4 0 15 -7 23 -16z m1409 -5
c14 -23 1 -64 -31 -99 -22 -23 -1120 -651 -1240 -708 -29 -15 -34 -14 -48 0
-23 23 -11 80 24 114 39 37 1243 714 1266 711 10 -1 23 -9 29 -18z m-1455
-401 c32 -32 2 -100 -62 -140 -156 -98 -1221 -708 -1235 -708 -46 0 -51 61 -8
112 23 29 1251 747 1278 747 8 1 20 -4 27 -11z m1452 -49 c0 -33 -6 -47 -32
-73 -39 -38 -2443 -1429 -2471 -1430 -45 -2 -47 60 -4 109 33 39 2445 1434
2480 1434 25 1 27 -2 27 -40z m-1445 -369 c10 -32 -4 -75 -33 -103 -36 -34
-1250 -737 -1273 -737 -44 0 -44 84 0 124 36 32 1257 735 1278 736 13 0 24 -8
28 -20z m1443 -85 c9 -73 55 -43 -1259 -804 -677 -391 -1239 -711 -1249 -711
-41 0 -34 85 10 125 11 10 565 334 1232 720 822 477 1221 703 1238 702 20 -2
26 -8 28 -32z m40 -512 c3 -34 -2 -47 -25 -72 -36 -39 -760 -455 -793 -456
-22 0 -25 5 -28 42 -3 34 2 47 25 72 37 39 772 462 798 459 16 -2 21 -12 23
-45z m-10 -345 c21 -21 14 -74 -13 -107 -38 -45 -1088 -644 -1115 -636 -15 5
-20 15 -20 44 0 47 24 80 87 117 182 107 1037 594 1042 594 4 0 12 -5 19 -12z
m-960 -214 c2 -29 -3 -47 -18 -66 -29 -38 -1083 -640 -1112 -636 -46 6 -29
104 25 138 163 102 1067 610 1082 608 16 -2 21 -12 23 -44z m972 -194 c14 -27
-2 -79 -33 -107 -21 -19 -133 -84 -694 -407 -307 -175 -708 -406 -1043 -599
-781 -449 -993 -570 -1011 -574 -25 -7 -49 13 -49 41 0 33 36 83 78 110 45 28
470 273 1947 1121 286 164 572 329 635 366 123 72 153 81 170 49z m-2 -377
c13 -24 6 -63 -17 -93 -24 -33 -28 -36 -846 -505 -390 -224 -782 -449 -870
-499 -88 -51 -288 -166 -445 -256 -157 -90 -353 -203 -437 -252 -84 -48 -161
-88 -171 -88 -11 0 -25 7 -32 15 -17 21 1 83 32 112 21 19 181 112 903 525
149 85 347 199 440 253 94 54 274 157 400 230 127 73 354 203 505 290 556 321
520 303 538 268z m-14 -369 c11 -4 16 -19 16 -45 0 -31 -7 -47 -32 -73 -43
-45 -2728 -1586 -2762 -1586 -58 0 -35 101 33 145 20 13 509 294 1086 626 578
331 1181 678 1340 770 160 92 293 168 297 168 3 1 13 -2 22 -5z m4 -516 c17
-17 15 -59 -6 -93 -27 -43 -1027 -613 -1051 -598 -23 15 -26 53 -5 91 15 28
91 75 501 308 496 283 534 304 544 304 3 0 10 -5 17 -12z m10 -368 c5 -69 -10
-80 -416 -313 -256 -147 -389 -217 -404 -215 -18 2 -24 10 -26 38 -1 20 5 47
15 63 24 38 767 468 803 464 21 -2 25 -8 28 -37z m-1210 -355 c9 -71 21 -63
-789 -529 -417 -241 -767 -436 -776 -434 -25 5 -28 65 -6 101 24 39 1506 897
1543 894 20 -2 26 -8 28 -32z m1210 -43 c7 -71 0 -76 -577 -405 -574 -329
-581 -332 -581 -263 0 70 15 80 575 402 367 211 538 303 555 301 20 -2 26 -8
28 -35z m-14 -398 c22 -8 20 -62 -3 -99 -14 -23 -322 -204 -1390 -818 -755
-434 -1380 -787 -1389 -785 -24 5 -27 66 -5 102 14 22 352 221 1388 817 754
433 1373 788 1377 788 3 1 13 -2 22 -5z m14 -409 c4 -35 -20 -85 -50 -104 -34
-21 -2679 -1541 -2709 -1556 -41 -22 -59 -10 -59 36 0 28 7 46 28 68 37 40
2741 1592 2767 1589 14 -2 21 -12 23 -33z m-3058 -190 c17 -21 -1 -84 -32
-112 -13 -11 -153 -95 -313 -187 -310 -179 -337 -189 -343 -131 -6 64 23 88
343 272 165 95 307 173 316 173 9 0 22 -7 29 -15z m3059 -174 c14 -25 -3 -82
-31 -108 -13 -12 -140 -89 -283 -171 -143 -82 -321 -184 -395 -227 -279 -160
-757 -435 -1105 -635 -198 -114 -494 -284 -658 -378 -163 -95 -306 -172 -316
-172 -10 0 -24 7 -31 15 -17 21 1 83 32 112 13 11 160 99 328 195 307 176 596
342 1010 581 299 172 1078 620 1260 724 80 46 153 83 162 83 10 0 22 -8 27
-19z m-3064 -168 c19 -18 15 -59 -10 -96 -15 -23 -614 -377 -638 -377 -21 0
-37 22 -37 50 0 57 31 80 347 263 169 97 310 177 314 177 4 0 15 -7 24 -17z
m-1117 -680 l3 -103 -33 -34 c-28 -30 -369 -236 -390 -236 -3 0 -14 7 -22 16
-12 11 -16 36 -16 97 0 127 4 131 221 259 121 71 192 107 209 105 25 -2 25 -3
28 -104z m1128 -159 c4 -14 -2 -39 -13 -61 -17 -34 -54 -58 -324 -215 -167
-97 -314 -177 -325 -178 -37 0 -45 52 -17 101 13 22 96 75 318 203 165 96 307
176 315 178 24 8 40 -2 46 -28z m-2148 -99 c7 -68 -9 -79 -568 -402 -289 -167
-533 -303 -542 -303 -45 0 -43 85 3 126 11 10 251 152 532 315 548 318 569
328 575 264z m1020 -232 l3 -103 -33 -34 c-28 -30 -369 -236 -390 -236 -3 0
-14 7 -22 16 -12 11 -16 36 -16 97 0 127 4 131 221 259 121 71 192 107 209
105 25 -2 25 -3 28 -104z m1127 -43 c10 -32 -14 -88 -48 -114 -18 -13 -159
-96 -314 -185 -189 -109 -290 -161 -305 -159 -20 3 -23 8 -22 46 1 33 7 50 27
69 39 40 598 361 629 362 18 1 29 -5 33 -19z m-2151 -46 c13 -34 5 -66 -26
-99 -20 -20 -195 -127 -437 -266 -428 -247 -432 -248 -439 -183 -6 63 20 83
448 330 223 128 415 233 426 234 12 0 25 -7 28 -16z m1024 -401 l3 -103 -33
-35 c-32 -33 -370 -235 -395 -235 -22 0 -33 37 -33 115 0 80 12 115 50 150 46
42 355 214 380 212 25 -2 25 -3 28 -104z m1122 72 c17 -21 -1 -83 -32 -112
-13 -11 -153 -95 -312 -187 -311 -179 -338 -189 -344 -131 -6 64 24 87 343
272 165 95 307 173 316 173 9 0 22 -7 29 -15z m-2152 -7 c7 -7 12 -23 12 -36
0 -62 -24 -79 -446 -322 -223 -129 -413 -236 -421 -238 -22 -5 -43 18 -43 47
0 58 29 82 271 220 129 74 315 181 413 238 99 57 185 103 191 103 6 0 16 -5
23 -12z m-1310 -70 c18 -18 15 -59 -7 -94 -23 -38 -210 -147 -244 -142 -17 2
-23 10 -25 40 -4 50 29 85 148 153 102 59 110 61 128 43z m244 -222 c8 -20 7
-32 -9 -63 -15 -30 -41 -51 -124 -100 -107 -65 -127 -71 -147 -51 -18 18 -14
52 11 89 24 36 206 149 240 149 9 0 22 -11 29 -24z m1066 -48 c7 -7 12 -24 12
-39 0 -63 -23 -79 -570 -395 -289 -167 -533 -303 -542 -304 -46 -1 -42 84 5
128 20 18 1022 601 1057 615 23 8 25 8 38 -5z m1030 -215 c3 -100 2 -102 -27
-135 -28 -32 -373 -238 -398 -238 -22 0 -33 38 -33 115 0 80 12 115 49 149 46
41 356 215 381 213 25 -2 25 -3 28 -104z m-2097 -77 c9 -19 8 -32 -7 -62 -21
-42 -56 -69 -169 -129 -60 -32 -78 -38 -92 -29 -25 16 -27 54 -4 91 21 34 210
153 244 153 9 0 22 -11 28 -24z m1073 -94 c0 -30 -8 -50 -24 -67 -19 -20 -687
-413 -814 -479 -61 -31 -89 28 -43 94 30 44 819 502 857 498 22 -3 25 -7 24
-46z m-6 -304 c18 -18 14 -59 -8 -93 -25 -38 -1051 -634 -1092 -635 -38 0 -47
37 -21 87 18 35 68 66 549 345 291 169 536 307 545 307 8 1 20 -4 27 -11z
m-1304 -74 c23 -59 -13 -105 -140 -180 -111 -65 -137 -67 -142 -12 -4 50 31
87 144 154 93 55 128 64 138 38z m236 -214 c8 -16 6 -30 -8 -64 -17 -38 -31
-50 -127 -105 -60 -34 -115 -61 -123 -59 -41 8 -40 66 1 114 30 34 194 132
224 133 13 1 27 -8 33 -19z m-232 -495 c5 -51 -33 -92 -147 -158 -112 -66
-133 -67 -139 -11 -4 51 29 88 135 148 113 65 146 69 151 21z"/>
<path d="M11632 17415 c-49 -35 -85 -127 -84 -213 3 -115 94 -126 156 -19 45
78 52 188 16 232 -16 19 -60 19 -88 0z"/>
<path d="M15530 17114 c-63 -37 -225 -131 -360 -209 -135 -77 -334 -192 -443
-255 -111 -65 -205 -125 -214 -139 -22 -33 -23 -90 -2 -104 13 -8 112 45 490
263 696 401 657 378 675 411 21 41 15 93 -11 97 -11 1 -72 -28 -135 -64z"/>
<path d="M15590 16869 c-93 -54 -828 -477 -949 -547 -120 -70 -138 -88 -148
-145 -8 -49 20 -64 70 -37 39 21 617 354 978 564 125 72 154 104 147 161 -4
41 -31 42 -98 4z"/>
<path d="M15510 16546 c-69 -40 -199 -116 -290 -168 -91 -52 -210 -121 -265
-153 -55 -32 -172 -100 -260 -150 -172 -99 -209 -133 -203 -190 2 -23 9 -31
26 -33 15 -2 127 56 335 176 172 99 416 239 542 312 256 147 298 180 293 238
-5 58 -33 53 -178 -32z"/>
<path d="M15625 15632 c-6 -6 -84 -52 -175 -104 -91 -52 -309 -178 -485 -280
-176 -101 -345 -199 -376 -216 -66 -37 -92 -71 -93 -121 -2 -63 29 -55 230 62
98 56 348 201 555 320 401 232 415 242 407 312 -2 23 -8 31 -28 33 -14 2 -30
-1 -35 -6z"/>
<path d="M17216 15456 c-65 -24 -135 -78 -182 -139 -24 -33 -41 -63 -38 -68
12 -20 33 -7 72 44 73 94 155 140 252 141 55 1 72 -4 110 -28 43 -28 44 -28
29 -5 -31 46 -66 63 -137 66 -40 2 -82 -2 -106 -11z"/>
<path d="M15475 15265 c-88 -51 -335 -194 -550 -318 -414 -239 -439 -258 -433
-322 4 -40 42 -45 95 -12 21 13 263 153 538 311 303 174 513 301 533 322 27
29 33 41 30 72 -5 60 -32 53 -213 -53z"/>
<path d="M16695 15200 c-185 -16 -280 -48 -273 -93 2 -16 24 -33 87 -65 l84
-42 1 -88 c1 -78 5 -96 34 -155 18 -37 37 -67 41 -67 5 0 11 -53 14 -117 9
-205 63 -340 154 -384 38 -18 57 -21 129 -17 l84 4 0 -63 c0 -43 -6 -74 -20
-100 -24 -45 -14 -68 38 -90 89 -38 248 -8 328 61 l39 34 3 125 c4 124 4 126
30 143 36 24 48 41 62 91 9 31 18 43 37 48 43 10 73 37 104 89 34 60 38 117
10 163 -11 17 -29 34 -41 38 -22 7 -22 7 4 34 l27 28 -45 41 c-58 54 -140 106
-218 139 -40 17 -88 50 -132 90 -153 141 -291 177 -581 153z"/>
<path d="M15195 14825 c-673 -389 -665 -384 -686 -419 -11 -17 -18 -44 -17
-61 5 -54 34 -45 256 83 114 66 360 208 547 317 187 108 351 207 364 220 18
17 24 35 25 67 1 39 -1 43 -24 45 -17 2 -164 -78 -465 -252z"/>
<path d="M7990 14355 c-668 -114 -1426 -712 -2005 -1580 -156 -235 -216 -336
-340 -580 -208 -410 -359 -834 -439 -1241 -51 -260 -60 -352 -60 -634 -1 -233
2 -280 22 -392 42 -235 108 -413 203 -548 37 -54 46 -60 88 -67 70 -12 220 -6
318 12 297 55 696 256 1013 510 780 624 1429 1652 1688 2670 80 314 114 566
114 855 -1 343 -49 591 -158 813 -65 132 -105 183 -151 191 -60 9 -211 5 -293
-9z m-812 -1053 c17 -23 17 -28 -33 -219 -25 -95 -45 -177 -45 -182 0 -5 23
-14 50 -20 53 -12 123 -43 152 -69 17 -14 20 -11 44 44 14 32 50 144 81 249
30 104 62 198 70 208 27 29 79 20 93 -18 10 -27 -88 -375 -143 -506 l-37 -87
40 -85 c22 -47 40 -92 40 -100 0 -34 23 -25 101 37 136 110 146 101 183 -170
39 -291 40 -298 27 -322 -14 -26 -72 -30 -91 -7 -7 8 -24 97 -37 197 -14 101
-27 185 -29 187 -1 2 -28 -16 -59 -40 l-57 -44 7 -105 c9 -149 -18 -391 -61
-546 -5 -19 1 -22 83 -34 128 -18 152 -30 153 -73 0 -17 -192 -553 -211 -589
-22 -40 -93 -30 -104 15 -4 14 26 111 84 270 50 135 91 249 91 251 0 5 -131
28 -134 24 -2 -2 -13 -32 -26 -68 -57 -159 -155 -342 -254 -473 -292 -388
-656 -464 -864 -182 -24 33 -45 60 -47 60 -1 0 -30 -33 -63 -73 l-61 -72 80
-163 c43 -89 79 -174 79 -189 0 -19 -8 -33 -25 -44 -49 -32 -66 -12 -170 196
-52 104 -95 198 -95 208 0 10 46 74 103 143 96 116 103 127 95 154 -33 118
-47 353 -29 508 4 37 4 67 1 67 -4 0 -29 -7 -57 -15 -43 -13 -52 -20 -57 -43
-3 -15 -24 -132 -46 -261 -42 -244 -51 -271 -96 -271 -32 0 -54 26 -54 63 0
44 89 557 101 578 9 18 14 20 89 39 25 6 68 18 97 26 l51 15 18 72 c17 72 89
289 104 316 5 10 -5 36 -30 75 -33 53 -120 297 -120 337 0 41 74 66 100 34 7
-9 32 -73 55 -143 57 -176 57 -176 85 -121 37 73 141 219 203 286 l59 62 -41
152 c-23 83 -41 158 -41 167 0 25 31 52 60 52 44 0 47 -7 100 -207 l22 -82 51
33 c29 19 75 42 104 52 l52 18 30 116 c16 63 40 155 52 205 25 101 54 141 92
130 12 -4 28 -14 35 -23z"/>
<path d="M6980 12755 c-165 -54 -349 -239 -485 -488 -42 -77 -40 -87 30 -118
195 -89 512 121 709 470 41 72 40 76 -31 118 -55 32 -155 40 -223 18z"/>
<path d="M7313 12518 c-78 -138 -238 -314 -351 -387 l-52 -34 -1 -66 c0 -36
-8 -304 -18 -596 -9 -291 -16 -532 -14 -534 8 -11 180 181 233 260 274 415
387 1021 252 1364 l-19 48 -30 -55z"/>
<path d="M6382 12013 c-73 -201 -103 -359 -109 -578 -4 -146 -2 -184 16 -270
51 -248 183 -390 345 -371 77 9 115 25 120 49 3 12 10 207 16 432 6 226 13
489 17 586 l6 177 -54 -15 c-83 -22 -203 -13 -271 20 -30 15 -57 27 -60 27 -3
0 -15 -26 -26 -57z"/>
<path d="M16747 14046 c-72 -30 -139 -85 -172 -139 -13 -24 -85 -186 -160
-361 -98 -232 -132 -322 -125 -331 13 -16 -59 -205 -77 -205 -43 0 -562 145
-679 190 -108 41 -143 64 -161 107 -20 49 -20 155 0 221 15 47 15 54 1 59 -27
10 -68 -30 -102 -100 -18 -37 -38 -67 -45 -67 -11 0 -29 10 -130 73 -91 56
-150 44 -163 -32 -3 -20 -14 -48 -25 -63 -10 -15 -19 -43 -19 -61 0 -19 -7
-40 -15 -47 -10 -9 -15 -32 -15 -74 0 -57 3 -64 33 -92 63 -59 154 -99 301
-134 117 -27 270 -80 499 -172 110 -44 201 -78 203 -76 2 3 -8 28 -22 57 -15
29 -24 54 -22 56 3 3 54 2 115 -3 102 -7 110 -6 105 10 -4 16 3 18 52 18 49 0
56 2 56 19 0 33 38 51 105 51 68 0 127 -23 164 -64 17 -17 35 -26 56 -26 l32
0 7 213 c10 330 25 520 46 605 44 172 143 316 252 367 l53 25 -45 0 c-25 0
-71 -11 -103 -24z"/>
<path d="M17698 13988 c-67 -102 -72 -275 -14 -450 83 -249 195 -550 208 -561
15 -12 66 -173 57 -180 -76 -62 -575 -397 -591 -397 -5 0 -36 7 -67 15 -40 10
-100 14 -204 12 l-148 -2 3 -30 c4 -36 50 -70 108 -80 22 -4 40 -11 40 -16 0
-12 -117 -46 -218 -63 -169 -29 -183 -84 -54 -216 67 -68 114 -85 207 -77 67
7 172 40 219 69 69 43 415 227 647 343 272 137 402 210 437 248 53 56 49 123
-22 374 -18 67 -32 132 -29 145 5 24 -126 493 -171 612 -75 198 -145 257 -327
273 -61 5 -66 4 -81 -19z"/>
<path d="M5051 13110 l-324 -187 -100 59 c-55 33 -107 62 -114 65 -11 4 -13
-152 -12 -883 l0 -889 19 87 c132 611 396 1234 749 1768 42 63 84 127 94 143
11 15 17 27 15 26 -1 -1 -149 -86 -327 -189z"/>
<path d="M17811 12038 c-68 -31 -210 -57 -386 -69 -88 -6 -161 -12 -163 -14
-1 -1 29 -73 68 -159 38 -86 70 -161 70 -167 0 -6 -16 -8 -42 -5 -78 11 -820
77 -823 74 -2 -2 -9 -246 -15 -543 -14 -597 -9 -885 25 -1535 2 -52 7 -156 10
-230 15 -363 24 -521 30 -530 3 -5 12 -10 20 -10 10 0 12 -14 8 -60 -6 -60 -7
-62 -75 -128 -111 -107 -156 -134 -468 -274 -96 -43 -183 -88 -192 -99 -56
-67 25 -147 173 -170 140 -22 269 2 434 79 l120 56 133 7 c289 17 315 48 252
309 -33 137 -48 180 -61 180 -15 0 -11 108 4 117 14 8 88 589 123 963 16 167
14 343 -6 480 -7 53 -4 101 20 270 16 113 49 363 75 555 45 339 54 391 61 370
2 -5 44 -269 94 -585 209 -1320 377 -2301 396 -2316 16 -13 20 -110 4 -116 -6
-2 -21 -51 -34 -109 -42 -186 -106 -307 -248 -472 -56 -64 -72 -112 -58 -168
11 -38 39 -56 125 -79 85 -22 250 -8 320 27 83 42 121 107 134 232 10 97 9 94
84 224 48 84 49 90 44 145 -6 69 -42 185 -62 206 -17 16 -21 106 -6 121 16 16
29 530 27 1005 -3 485 -5 505 -71 715 -24 78 -25 94 -50 820 -27 782 -33 906
-43 904 -4 0 -27 -10 -51 -21z"/>
<path d="M3015 10124 c-44 -10 -96 -13 -195 -9 -211 9 -352 -29 -440 -119 -30
-32 -34 -33 -73 -24 -23 5 -78 8 -123 6 -64 -3 -90 -10 -125 -30 -94 -56 -150
-145 -177 -279 -13 -70 -14 -100 -2 -255 19 -254 -3 -349 -105 -443 -124 -114
-146 -186 -79 -260 46 -52 87 -64 188 -59 141 8 253 84 318 216 29 58 33 77
36 166 5 119 -8 201 -56 356 -48 155 -50 241 -7 326 20 38 42 65 64 78 34 20
35 20 26 0 -23 -54 -36 -128 -36 -204 -1 -149 32 -245 131 -394 70 -104 172
-216 220 -241 40 -21 165 -33 240 -24 59 7 68 11 106 52 45 46 68 106 80 201
5 42 4 49 -7 39 -38 -37 -127 6 -155 74 -40 96 2 183 89 183 60 0 107 -43 137
-127 20 -56 24 -61 41 -50 40 25 46 99 10 122 -7 4 -1 19 15 41 30 39 42 107
26 153 -9 26 -8 31 14 45 13 9 32 32 42 52 l18 36 31 -69 c17 -37 34 -80 37
-95 8 -36 16 -35 43 7 47 72 49 161 4 224 -19 26 -20 34 -10 53 7 13 13 52 13
88 1 82 -27 133 -88 161 -50 23 -162 24 -251 3z"/>
<path d="M2425 8770 c-80 -20 -143 -67 -175 -130 -61 -119 -71 -326 -27 -540
23 -112 90 -327 146 -466 l20 -52 -36 -73 c-100 -209 -208 -511 -199 -556 4
-16 0 -62 -8 -102 -18 -93 -21 -403 -6 -597 11 -139 67 -706 75 -754 2 -14 11
-97 21 -186 l17 -161 -26 -94 c-75 -267 -82 -313 -82 -589 0 -262 5 -338 56
-785 39 -347 33 -322 80 -330 45 -8 139 10 190 35 l36 19 37 298 c20 164 45
363 56 443 11 80 22 165 25 190 14 110 49 320 81 495 66 357 72 400 94 646 11
135 24 274 29 310 7 59 8 61 14 29 7 -35 23 -210 52 -545 8 -99 17 -200 20
-225 2 -25 10 -113 16 -195 10 -131 10 -158 -4 -205 -9 -30 -25 -100 -36 -155
-59 -292 -49 -531 55 -1335 29 -220 28 -219 117 -245 74 -22 158 -17 204 13 8
5 21 103 38 287 31 337 69 678 90 812 9 54 31 193 50 308 64 401 79 616 94
1400 11 529 2 919 -35 1520 l-27 450 -57 90 c-31 50 -67 108 -80 130 -13 22
-42 61 -65 87 -127 148 -190 348 -165 528 6 44 17 98 25 120 8 22 11 40 7 40
-4 0 -38 5 -76 10 -56 9 -84 7 -144 -6 -125 -28 -281 -4 -332 52 -20 20 -32
24 -79 23 -31 -1 -69 -5 -86 -9z"/>
<path d="M12799 7639 c-302 -173 -399 -231 -399 -239 0 -16 31 -32 54 -28 33
7 525 291 526 304 0 8 -40 34 -54 34 -1 0 -58 -32 -127 -71z"/>
<path d="M13110 7291 c-139 -81 -256 -153 -257 -158 -2 -6 10 -16 26 -23 29
-12 39 -7 278 130 136 79 255 149 263 157 13 13 13 16 -4 29 -11 8 -27 14 -35
13 -9 0 -131 -67 -271 -148z"/>
<path d="M12223 7351 c-34 -20 -63 -38 -63 -41 0 -3 24 -19 54 -35 l55 -30 38
23 c21 13 53 30 71 39 17 9 32 20 32 23 0 10 -95 60 -111 59 -8 -1 -42 -17
-76 -38z"/>
<path d="M13570 7027 c-135 -78 -251 -146 -259 -151 -12 -8 -11 -11 4 -23 11
-7 29 -13 41 -13 17 0 511 275 534 297 9 8 -33 33 -54 32 -12 0 -131 -64 -266
-142z"/>
<path d="M12168 6893 l-56 -69 65 -29 c35 -15 80 -39 100 -52 l35 -24 90 53
c50 29 91 58 92 63 1 12 -198 113 -239 121 -27 5 -35 0 -87 -63z"/>
<path d="M8850 5715 c-299 -174 -551 -321 -558 -329 -12 -12 -11 -17 12 -31
14 -10 36 -15 49 -13 36 7 1127 641 1127 655 0 16 -32 33 -62 33 -13 -1 -268
-142 -568 -315z"/>
<path d="M9044 5609 c-296 -171 -547 -319 -558 -329 -18 -18 -18 -18 8 -35 16
-11 35 -15 50 -11 28 7 1094 620 1116 642 13 14 13 17 -4 30 -11 8 -32 14 -46
14 -16 0 -234 -120 -566 -311z"/>
<path d="M10852 4966 c-51 -29 -95 -55 -97 -58 -3 -3 6 -10 19 -16 20 -9 36
-3 121 45 89 51 96 57 80 70 -11 7 -21 13 -24 13 -3 0 -48 -25 -99 -54z"/>
<path d="M10592 4816 c-51 -29 -95 -56 -98 -59 -3 -3 4 -11 16 -17 18 -10 35
-4 121 45 91 52 99 58 82 71 -10 7 -20 13 -23 13 -3 0 -47 -24 -98 -53z"/>
<path d="M10188 4582 c-76 -44 -95 -59 -86 -69 17 -21 31 -16 125 38 108 62
109 63 81 76 -20 9 -38 2 -120 -45z"/>
<path d="M9918 4427 c-49 -28 -88 -55 -88 -59 0 -4 10 -10 23 -13 17 -5 49 8
113 45 106 61 102 59 84 70 -25 16 -41 10 -132 -43z"/>
<path d="M9518 4197 c-48 -29 -89 -55 -93 -58 -3 -3 5 -11 18 -16 20 -10 37
-3 121 45 85 50 94 58 79 69 -24 18 -29 17 -125 -40z"/>
<path d="M9258 4046 c-106 -63 -105 -62 -78 -76 18 -10 35 -3 120 47 94 54 99
58 77 70 -12 7 -24 12 -27 12 -3 0 -44 -24 -92 -53z"/>
<path d="M8859 3817 c-89 -54 -101 -66 -76 -81 10 -6 45 9 116 49 99 56 102
59 79 71 -12 7 -25 13 -28 13 -3 -1 -44 -24 -91 -52z"/>
<path d="M8581 3655 c-92 -53 -94 -54 -69 -66 24 -10 36 -6 120 41 112 64 106
59 88 70 -26 16 -42 11 -139 -45z"/>
<path d="M2645 3644 c-22 -8 -51 -23 -65 -34 l-25 -20 48 0 c70 0 107 -22 107
-63 0 -53 -72 -143 -175 -221 -81 -62 -106 -76 -154 -87 -68 -15 -131 17 -131
66 0 48 -18 24 -29 -38 -16 -90 -14 -178 4 -203 34 -50 139 -69 209 -40 23 10
58 46 109 113 41 54 116 142 167 197 98 104 127 155 137 235 5 46 3 52 -25 80
-27 27 -37 31 -84 30 -29 0 -71 -7 -93 -15z"/>
<path d="M8205 3438 c-38 -22 -81 -47 -94 -56 l-24 -15 23 -12 c20 -11 33 -6
121 44 86 49 97 58 82 69 -24 17 -30 16 -108 -30z"/>
<path d="M7931 3280 c-103 -60 -109 -65 -83 -79 17 -9 37 -1 120 46 87 50 98
59 83 70 -23 18 -28 17 -120 -37z"/>
<path d="M2957 2785 c-9 -33 -21 -92 -27 -132 -19 -122 6 -147 186 -187 60
-14 157 -45 216 -70 157 -67 210 -79 347 -74 95 3 124 8 157 25 53 28 94 77
94 112 0 41 -64 93 -163 130 -21 8 -23 7 -19 -19 3 -24 -1 -32 -28 -49 -50
-30 -93 -34 -188 -16 -99 19 -328 93 -405 131 -85 43 -115 79 -141 168 l-12
41 -17 -60z"/>
</g>
</svg>
